<svg width="134.20833740234374px" height="121.33334045410156px" xmlns="http://www.w3.org/2000/svg" viewBox="182.8958312988281 14.33332977294922 134.20833740234374 121.33334045410156" style="background:#e00" preserveAspectRatio="xMidYMid"><defs><filter id="editing-lego" x="-100%" y="-100%" width="300%" height="300%"><feFlood flood-color="#000" result="f1"></feFlood><feFlood flood-color="#ff0" result="f2"></feFlood><feMorphology operator="dilate" radius="3" in="SourceAlpha"></feMorphology><feConvolveMatrix order="5,5" divisor="1" result="cm1" kernelMatrix="0 1 1 1 0  1 0 0 0 1  1 0 0 0 1  1 0 0 0 1  0 1 1 1 0"></feConvolveMatrix><feComposite operator="in" in="f1" in2="cm1" result="c1"></feComposite><feMorphology operator="dilate" radius="3"></feMorphology><feConvolveMatrix order="5,5" divisor="1" result="cm2" kernelMatrix="0 1 1 1 0  1 0 0 0 1  1 0 0 0 1  1 0 0 0 1  0 1 1 1 0"></feConvolveMatrix><feComposite operator="in" in="f2" in2="cm2" result="c2"></feComposite><feMerge><feMergeNode in="c2"></feMergeNode><feMergeNode in="c1"></feMergeNode><feMergeNode in="SourceGraphic"></feMergeNode></feMerge></filter></defs><g filter="url(#editing-lego)"><g transform="translate(208.01499998569489, 97.39999961853027)"><path d="M34.50-13.25L34.50-13.25L34.50-13.25Q36.16-12.03 36.16-9.44L36.16-9.44L36.16-9.44Q36.16-6.85 35.04-5.02L35.04-5.02L35.04-5.02Q33.92-3.20 31.74-1.79L31.74-1.79L31.74-1.79Q27.07 1.22 18.91 1.22L18.91 1.22L18.91 1.22Q10.75 1.22 6.30-3.04L6.30-3.04L6.30-3.04Q1.86-7.30 1.86-14.85L1.86-14.85L1.86-14.85Q1.86-25.54 7.42-33.66L7.42-33.66L7.42-33.66Q11.65-39.68 19.20-42.24L19.20-42.24L19.20-42.24Q23.10-43.52 26.94-43.52L26.94-43.52L26.94-43.52Q30.78-43.52 33.15-43.01L33.15-43.01L33.15-43.01Q35.52-42.50 37.31-41.47L37.31-41.47L37.31-41.47Q41.22-39.23 41.22-35.65L41.22-35.65L41.22-35.65Q41.22-32.38 38.14-29.95L38.14-29.95L38.14-29.95Q35.33-27.78 33.02-27.78L33.02-27.78L33.02-27.78Q30.72-27.78 29.76-28.10L29.76-28.10L29.76-28.10Q30.02-30.40 30.02-31.90L30.02-31.90L30.02-31.90Q30.02-33.41 29.95-34.50L29.95-34.50L29.95-34.50Q29.89-35.58 29.57-36.61L29.57-36.61L29.57-36.61Q28.93-38.98 26.98-38.98L26.98-38.98L26.98-38.98Q25.02-38.98 23.07-37.15L23.07-37.15L23.07-37.15Q21.12-35.33 19.46-32.26L19.46-32.26L19.46-32.26Q15.68-25.28 15.68-17.02L15.68-17.02L15.68-17.02Q15.68-13.06 17.92-10.78L17.92-10.78L17.92-10.78Q20.16-8.51 24.96-8.51L24.96-8.51L24.96-8.51Q28.54-8.51 31.94-10.88L31.94-10.88L31.94-10.88Q33.41-11.90 34.50-13.25ZM54.59 0L40.90 0L48.70-42.05L48.70-42.05Q55.04-42.75 64.29-42.75L64.29-42.75L64.29-42.75Q73.54-42.75 77.82-40.06L77.82-40.06L77.82-40.06Q82.11-37.38 82.11-31.97L82.11-31.97L82.11-31.97Q82.11-26.56 79.33-23.17L79.33-23.17L79.33-23.17Q76.54-19.78 71.74-18.69L71.74-18.69L71.74-18.69Q72.83-13.38 75.33-9.09L75.33-9.09L75.33-9.09Q77.63-5.06 80.32-3.78L80.32-3.78L80.32-3.78Q79.36-1.09 77.41 0.10L77.41 0.10L77.41 0.10Q75.46 1.28 72.67 1.28L72.67 1.28L72.67 1.28Q69.89 1.28 67.71-0.35L67.71-0.35L67.71-0.35Q65.54-1.98 63.81-4.99L63.81-4.99L63.81-4.99Q60.16-11.52 59.78-21.82L59.78-21.82L60.22-21.82L60.22-21.82Q64.96-21.95 67.33-24.42L67.33-24.42L67.33-24.42Q69.70-26.88 69.70-32.06L69.70-32.06L69.70-32.06Q69.70-38.53 64.26-38.78L64.26-38.78L62.85-38.78L62.85-38.78Q62.27-38.78 61.95-38.72L61.95-38.72L54.59 0Z" fill="#fff"></path></g></g><style>text {
  font-size: 64px;
  font-family: Arial Black;
  dominant-baseline: central;
  text-anchor: middle;
}</style></svg>