<svg width="175.25px" height="158.66666870117186px" xmlns="http://www.w3.org/2000/svg" viewBox="162.375 -4.333334350585929 175.25 158.66666870117186" style="background: rgba(0, 0, 0, 0);" preserveAspectRatio="xMidYMid"><defs><filter id="editing-extrusion" x="-100%" y="-100%" width="300%" height="300%"><feFlood result="color1" flood-color="rgba(0%,0%,0%,0)"></feFlood><feConvolveMatrix order="8,8" divisor="1" kernelMatrix="1 0 0 0 0 0 0 0 0 1 0 0 0 0 0 0 0 0 1 0 0 0 0 0 0 0 0 1 0 0 0 0 0 0 0 0 1 0 0 0 0 0 0 0 0 1 0 0 0 0 0 0 0 0 1 0 0 0 0 0 0 0 0 1" in="SourceAlpha" result="extrude"></feConvolveMatrix><feComposite in="color1" in2="extrude" result="comp-extrude" operator="in"></feComposite><feOffset dx="4" dy="4" in="comp-extrude" result="offset-extrude"></feOffset><feMerge><feMergeNode in="offset-extrude"></feMergeNode><feMergeNode in="SourceGraphic"></feMergeNode></feMerge></filter></defs><g filter="url(#editing-extrusion)"><g transform="translate(192.99999928474426, 105.22500038146973)"><path d="M30.60 1.05L30.60 1.05Q16.43 1.05 8.74-6.15L8.74-6.15L8.74-6.15Q1.05-13.35 1.05-29.17L1.05-29.17L1.05-29.17Q1.05-59.40 30.45-59.40L30.45-59.40L30.45-59.40Q37.57-59.40 43.69-57.67L43.69-57.67L43.69-57.67Q49.80-55.95 52.80-53.85L52.80-53.85L52.80-35.10L34.80-35.10L34.80-40.50L34.80-40.50Q34.80-43.35 33.52-44.70L33.52-44.70L33.52-44.70Q32.25-46.05 29.70-46.05L29.70-46.05L29.70-46.05Q27.15-46.05 25.88-44.70L25.88-44.70L25.88-44.70Q24.60-43.35 24.60-40.50L24.60-40.50L24.60-17.85L24.60-17.85Q24.60-15 25.88-13.65L25.88-13.65L25.88-13.65Q27.15-12.30 29.70-12.30L29.70-12.30L29.70-12.30Q32.25-12.30 33.52-13.65L33.52-13.65L33.52-13.65Q34.80-15 34.80-17.85L34.80-17.85L34.80-23.93L52.80-23.93L52.80-4.50L52.80-4.50Q49.73-2.40 43.69-0.67L43.69-0.67L43.69-0.67Q37.65 1.05 30.60 1.05L30.60 1.05ZM55.65 0L55.65-12.30L59.40-12.30L59.40-46.05L55.65-46.05L55.65-58.35L90.07-58.35L90.07-58.35Q99.75-58.35 104.85-54.38L104.85-54.38L104.85-54.38Q109.95-50.40 109.95-41.48L109.95-41.48L109.95-41.48Q109.95-36.45 107.92-32.77L107.92-32.77L107.92-32.77Q105.90-29.10 102.15-27.68L102.15-27.68L102.22-26.93L102.22-26.93Q109.42-25.80 109.42-18.07L109.42-18.07L109.42-12.30L112.95-12.30L112.95 0L89.17 0L89.17-17.63L89.17-17.63Q89.17-20.55 88.31-22.05L88.31-22.05L88.31-22.05Q87.45-23.55 85.61-24.07L85.61-24.07L85.61-24.07Q83.78-24.60 80.40-24.60L80.40-24.60L80.40-12.30L85.35-12.30L85.35 0L55.65 0ZM80.40-33.75L84.45-33.75L84.45-33.75Q86.63-33.75 87.71-34.91L87.71-34.91L87.71-34.91Q88.80-36.07 88.80-38.55L88.80-38.55L88.80-41.25L88.80-41.25Q88.80-43.73 87.71-44.89L87.71-44.89L87.71-44.89Q86.63-46.05 84.45-46.05L84.45-46.05L80.40-46.05L80.40-33.75Z" fill="#181717"></path></g></g><style>text {
  font-size: 64px;
  font-family: Arial Black;
  dominant-baseline: central;
  text-anchor: middle;
}</style></svg>