<svg width="567.593" height="121.333" xmlns="http://www.w3.org/2000/svg" viewBox="-33.797 14.333 567.593 121.333" style="background:#e00" preserveAspectRatio="xMidYMid"><defs><filter id="editing-lego" x="-100%" y="-100%" width="300%" height="300%"><feFlood flood-color="#000" result="f1"/><feFlood flood-color="#ff0" result="f2"/><feMorphology operator="dilate" radius="3" in="SourceAlpha"/><feConvolveMatrix order="5,5" divisor="1" result="cm1" kernelMatrix="0 1 1 1 0 1 0 0 0 1 1 0 0 0 1 1 0 0 0 1 0 1 1 1 0"/><feComposite operator="in" in="f1" in2="cm1" result="c1"/><feMorphology operator="dilate" radius="3"/><feConvolveMatrix order="5,5" divisor="1" result="cm2" kernelMatrix="0 1 1 1 0 1 0 0 0 1 1 0 0 0 1 1 0 0 0 1 0 1 1 1 0"/><feComposite operator="in" in="f2" in2="cm2" result="c2"/><feMerge><feMergeNode in="c2"/><feMergeNode in="c1"/><feMergeNode in="SourceGraphic"/></feMerge></filter></defs><g filter="url(#editing-lego)"><path d="M83.93 89.91q1.66 1.22 1.66 3.81t-1.12 4.42q-1.12 1.82-3.3 3.23-4.67 3.01-12.83 3.01t-12.61-4.26q-4.44-4.26-4.44-11.81 0-10.69 5.56-18.81 4.23-6.02 11.78-8.58 3.9-1.28 7.74-1.28 3.84 0 6.21.51t4.16 1.54q3.91 2.24 3.91 5.82 0 3.27-3.08 5.7-2.81 2.17-5.12 2.17-2.3 0-3.26-.32.26-2.3.26-3.8 0-1.51-.07-2.6-.06-1.08-.38-2.11-.64-2.37-2.59-2.37-1.96 0-3.91 1.83-1.95 1.82-3.61 4.89-3.78 6.98-3.78 15.24 0 3.96 2.24 6.24 2.24 2.27 7.04 2.27 3.58 0 6.98-2.37 1.47-1.02 2.56-2.37zm9.76 11.33q-1.51-1.66-2.18-4.29-.67-2.62-.67-6.91t1.47-8.19q1.47-3.91 4.16-6.72 5.5-5.89 14.59-5.89 3.27 0 5.63 1.09l10.95-1.09-4.74 24.96q-.19.77-.19 2.18 0 1.4.86 2.3.87.9 2.15 1.02-.64 2.18-2.98 3.46-2.33 1.28-4.96 1.28-2.62 0-4.38-.99-1.76-.99-2.27-2.66-1.03 1.6-3.2 2.63-2.18 1.02-5.09 1.02-2.91 0-5.28-.77t-3.87-2.43zm13.5-25.98q-.74 1.15-1.38 3.1-.64 1.95-1.69 7.17-1.06 5.21-1.06 8.93 0 3.71.58 4.8.57 1.08 1.6 1.08 2.05 0 3.55-1.95t2.08-5.41l3.39-18.75q-1.34-1.15-2.91-1.15t-2.5.51q-.92.51-1.66 1.67zm69.98 29.18q-7.74 0-7.74-6.02 0-2.62 1.12-7.71t1.5-7.13q.9-4.68.9-6.15 0-3.26-2.43-3.26-1.6 0-3.14 2.21-1.53 2.2-2.24 6.62l-3.97 20.16-12.48 1.28 3.46-17.41q.58-2.88 1.09-6.14.51-3.27.51-3.78 0-2.94-2.18-2.94-1.47 0-3.07 2.17-1.6 2.18-2.49 6.66l-3.91 20.16-12.61 1.28 6.72-33.92 10.44-1.28-1.09 6.46q1.66-3.45 4.73-4.96 3.08-1.5 7.88-1.5 2.75 0 4.54 1.34 1.79 1.35 2.37 3.52 1.09-2.24 3.87-3.55 2.78-1.31 6.21-1.31 3.42 0 5.12.74 1.69.73 2.72 1.95 1.73 2.24 1.73 6.33 0 4.04-1.73 12.42-.9 4.1-.9 5.6t.87 2.4q.86.9 2.14 1.02-.64 2.18-2.85 3.46-2.21 1.28-5.09 1.28zm42.69-5.66q-2.69 2.72-6.37 4.19-3.68 1.47-7.32 1.47-3.65 0-4.93-.64l-1.99 10.88-12.99 1.28 8.83-45.44 10.44-1.09-.84 4.42q2.69-4.55 8.26-4.55 6.27 0 9.6 4.04 2.94 3.64 2.94 9.21t-1.47 9.54q-1.47 3.97-4.16 6.69zM205.4 80.82l-3.39 18.76q1.34 1.15 3 1.15 1.67 0 2.63-.64t1.66-1.92q1.92-3.46 3.46-13.95.45-3.08.45-6.08 0-3.01-.68-3.97-.67-.96-1.95-.96-3.9 0-5.18 7.61zm49.85 11.52q1.6 1.09 1.6 3.49 0 2.4-1.21 3.94-1.22 1.53-3.2 2.56-4.1 2.11-8.51 2.11-4.42 0-7.01-.96t-4.32-2.75q-3.39-3.39-3.39-9.6 0-9.67 5.24-15.55 5.64-6.34 15.43-6.34 6.08 0 9.09 2.56 2.24 1.92 2.24 5.06 0 11.26-19.46 11.26-.26 1.66-.26 3.07 0 2.95 1.32 4.07 1.31 1.12 3.74 1.12t5.02-1.12q2.6-1.12 3.68-2.92zm-13.05-6.97q4.54 0 7.17-2.82 2.62-2.69 2.62-6.97 0-1.48-.54-2.28-.55-.8-1.64-.8-1.08 0-2.01.42-.93.42-1.89 1.82-2.37 3.2-3.71 10.63zm41.21-.19q2.31-4.1 2.31-8.26 0-2.75-1.99-2.75-1.53 0-3.13 2.62-1.67 2.63-2.18 6.02l-3.33 20.35-13.24 1.28 6.52-33.92 10.56-1.28-1.15 6.46q3.14-6.46 10.18-6.46 3.71 0 5.73 1.92 2.01 1.92 2.01 5.86 0 3.93-2.59 6.43-2.59 2.49-7.01 2.49-1.92 0-2.69-.76zm39.62 17.98h-13.7l7.81-42.05q6.34-.7 15.59-.7 9.24 0 13.53 2.69 4.29 2.68 4.29 8.09t-2.78 8.8q-2.79 3.39-7.59 4.48 1.09 5.31 3.59 9.6 2.3 4.03 4.99 5.31-.96 2.69-2.91 3.88-1.96 1.18-4.74 1.18-2.78 0-4.96-1.63t-3.9-4.64q-3.65-6.53-4.04-16.83h.45q4.74-.13 7.11-2.6 2.36-2.46 2.36-7.64 0-6.47-5.44-6.72h-1.4q-.58 0-.9.06l-7.36 38.72zm56.38-10.82q1.6 1.09 1.6 3.49 0 2.4-1.21 3.94-1.22 1.53-3.2 2.56-4.1 2.11-8.51 2.11-4.42 0-7.01-.96t-4.32-2.75q-3.39-3.39-3.39-9.6 0-9.67 5.24-15.55 5.64-6.34 15.43-6.34 6.08 0 9.09 2.56 2.24 1.92 2.24 5.06 0 11.26-19.46 11.26-.26 1.66-.26 3.07 0 2.95 1.32 4.07 1.31 1.12 3.74 1.12t5.02-1.12q2.6-1.12 3.68-2.92zm-13.05-6.97q4.54 0 7.17-2.82 2.62-2.69 2.62-6.97 0-1.48-.54-2.28-.55-.8-1.64-.8-1.08 0-2.01.42-.93.42-1.89 1.82-2.37 3.2-3.71 10.63zm48.25 19.07q-7.74 0-7.74-6.02.06-1.66.58-4.48l1.15-5.88q1.73-8.32 1.73-10.18 0-3.71-2.18-3.71-3.65 0-5.57 9.53l-3.77 19.46-12.87 1.28 6.66-33.98 10.49-1.22-1.02 6.27q3.01-6.27 12.22-6.27 4.48 0 6.37 1.89 1.89 1.89 1.89 6.11 0 3.97-2.05 13.25-.96 4.16-.96 5.73 0 1.56.87 2.46.86.9 2.14 1.02-.64 2.18-2.85 3.46-2.21 1.28-5.09 1.28zm14.08-7.68q0-1.73.9-6.08l3.39-17.28h-3.77l.25-1.92q7.68-2.3 15.11-7.94h3.07l-1.54 6.98h4.99l-.57 2.88h-4.93l-3.26 17.28q-.84 3.97-.84 5.31 0 3.07 2.69 3.71-.64 2.18-2.94 3.46-2.31 1.28-5.57 1.28-3.26 0-5.12-2.05-1.86-2.05-1.86-5.63z" fill="#fff"/></g><style></style></svg>